<?xml version="1.0" standalone="no"?><!DOCTYPE svg PUBLIC "-//W3C//DTD SVG 1.1//EN" "http://www.w3.org/Graphics/SVG/1.1/DTD/svg11.dtd"><svg width="100%" height="100%" viewBox="0 0 36 36" version="1.1" xmlns="http://www.w3.org/2000/svg" xmlns:xlink="http://www.w3.org/1999/xlink" xml:space="preserve" style="fill-rule:evenodd;clip-rule:evenodd;stroke-linejoin:round;stroke-miterlimit:1.41421;"><g id="Logo 3"><clipPath id="_clip1"><circle cx="18" cy="18" r="18"/></clipPath><g clip-path="url(#_clip1)"><rect x="0" y="0" width="36" height="36" style="fill:url(#_Linear2);"/><g><g opacity="0.6"><circle cx="22" cy="20" r="18" style="fill:#000;fill-opacity:0.1;"/><circle cx="26" cy="24" r="18" style="fill:#ebebeb;fill-opacity:0.1;"/><circle cx="30" cy="28" r="18" style="fill:#000;fill-opacity:0.1;"/><circle cx="34" cy="32" r="18" style="fill:#000;fill-opacity:0.296137;"/><circle cx="38" cy="36" r="18" style="fill:#ebebeb;fill-opacity:0.1;"/><circle cx="42" cy="40" r="18" style="fill:#000;fill-opacity:0.1;"/></g></g><g><g opacity="0.4"><path d="M32,20c0,9.934 -8.066,18 -18,18c-9.934,0 -18,-8.066 -18,-18c0,-9.934 8.066,-18 18,-18c9.934,0 18,8.066 18,18Z" style="fill:#000;fill-opacity:0.1;"/><path d="M28,24c0,9.934 -8.066,18 -18,18c-9.934,0 -18,-8.066 -18,-18c0,-9.934 8.066,-18 18,-18c9.934,0 18,8.066 18,18Z" style="fill:#fff;fill-opacity:0.5;"/><path d="M24,28c0,9.934 -8.066,18 -18,18c-9.934,0 -18,-8.066 -18,-18c0,-9.934 8.066,-18 18,-18c9.934,0 18,8.066 18,18Z" style="fill:#000;fill-opacity:0.3;"/><path d="M20,32c0,9.934 -8.066,18 -18,18c-9.934,0 -18,-8.066 -18,-18c0,-9.934 8.066,-18 18,-18c9.934,0 18,8.066 18,18Z" style="fill:#000;fill-opacity:0.295314;"/><path d="M16,36c0,9.934 -8.066,18 -18,18c-9.934,0 -18,-8.066 -18,-18c0,-9.934 8.066,-18 18,-18c9.934,0 18,8.066 18,18Z" style="fill:#ebebeb;fill-opacity:0.1;"/><path d="M12,40c0,9.934 -8.066,18 -18,18c-9.934,0 -18,-8.066 -18,-18c0,-9.934 8.066,-18 18,-18c9.934,0 18,8.066 18,18Z" style="fill:#000;fill-opacity:0.3;"/></g></g></g></g><defs><linearGradient id="_Linear2" x1="0" y1="0" x2="1" y2="0" gradientUnits="userSpaceOnUse" gradientTransform="matrix(26,-21,21,26,3,27)"><stop offset="0%" style="stop-color:#f0a;stop-opacity:1"/><stop offset="50%" style="stop-color:#00dfff;stop-opacity:1"/><stop offset="100%" style="stop-color:#fffa00;stop-opacity:1"/></linearGradient></defs></svg>